Coordinates
version=1
nRows=54
nColumns=12
inDegrees=yes

Units are S.I. units (second, meters, Newtons, ...)
Angles are in degrees

endheader
time	SC_y	SC_z	SC_x	AC_y	AC_z	AC_x	GH_y	GH_z	GH_yy	EL_x	PS_y
       0.0              -35.76           12.0          18.73          61.22         -5.465          12.32         -42.27          55.27          38.27          42.66          42.77
   0.03485              -35.76          12.01          18.73          61.22         -5.467          12.32         -42.27          55.27          38.25          42.66          42.77
    0.0697              -35.75          12.01          18.73          61.22         -5.469          12.31         -42.27          55.27          38.23          42.66          42.77
    0.1046              -35.75          12.01          18.73          61.22         -5.471          12.31         -42.27          55.27          38.21          42.66          42.78
    0.1394              -35.74          12.02          18.73          61.22         -5.473           12.3         -42.27          55.26          38.19          42.66          42.78
    0.1743              -35.74          12.02          18.73          61.22         -5.475           12.3         -42.27          55.26          38.17          42.66          42.78
    0.2091              -35.73          12.02          18.73          61.22         -5.477           12.3         -42.27          55.26          38.14          42.67          42.79
     0.244              -35.73          12.03          18.73          61.22          -5.48          12.29         -42.27          55.25          38.12          42.67          42.79
    0.2788              -35.72          12.03          18.73          61.23         -5.483          12.29         -42.26          55.25          38.09          42.67          42.79
    0.3137              -35.72          12.04          18.73          61.23         -5.486          12.28         -42.26          55.25          38.06          42.67           42.8
    0.3485              -35.71          12.04          18.73          61.23         -5.489          12.27         -42.26          55.24          38.02          42.68           42.8
    0.3834               -35.7          12.05          18.72          61.23         -5.492          12.27         -42.26          55.24          37.99          42.68          42.81
    0.4182               -35.7          12.05          18.72          61.23         -5.496          12.26         -42.26          55.23          37.95          42.68          42.81
    0.4531              -35.69          12.06          18.72          61.23         -5.499          12.25         -42.26          55.23          37.91          42.68          42.82
    0.4879              -35.68          12.07          18.72          61.24         -5.504          12.24         -42.26          55.22          37.87          42.69          42.83
    0.5228              -35.67          12.08          18.72          61.24         -5.508          12.24         -42.26          55.21          37.82          42.69          42.83
    0.5576              -35.66          12.08          18.72          61.24         -5.513          12.23         -42.25          55.21          37.77           42.7          42.84
    0.5925              -35.65          12.09          18.71          61.24         -5.519          12.22         -42.25           55.2          37.71           42.7          42.85
    0.6273              -35.64           12.1          18.71          61.25         -5.524           12.2         -42.25          55.19          37.65          42.71          42.86
    0.6622              -35.62          12.11          18.71          61.25         -5.531          12.19         -42.25          55.18          37.58          42.71          42.87
     0.697              -35.61          12.13          18.71          61.25         -5.538          12.18         -42.24          55.17          37.51          42.72          42.88
    0.7319              -35.59          12.14           18.7          61.26         -5.546          12.16         -42.24          55.16          37.43          42.72          42.89
    0.7667              -35.58          12.15           18.7          61.26         -5.554          12.15         -42.24          55.15          37.34          42.73           42.9
    0.8016              -35.56          12.17           18.7          61.27         -5.564          12.13         -42.24          55.14          37.24          42.74          42.92
    0.8364              -35.53          12.19          18.69          61.27         -5.574          12.11         -42.23          55.12          37.13          42.75          42.93
    0.8713              -35.51          12.21          18.69          61.28         -5.586          12.08         -42.23          55.11           37.0          42.76          42.95
    0.9061              -35.48          12.23          18.68          61.29           -5.6          12.06         -42.22          55.09          36.86          42.77          42.97
     0.941              -35.45          12.26          18.68          61.29         -5.614          12.03         -42.22          55.07          36.71          42.78          42.99
    0.9758              -35.42          12.29          18.67           61.3         -5.631           12.0         -42.21          55.04          36.53           42.8          43.02
     1.011              -35.38          12.32          18.66          61.31          -5.65          11.96          -42.2          55.02          36.33          42.81          43.05
     1.046              -35.33          12.36          18.66          61.32         -5.672          11.92          -42.2          54.99           36.1          42.83          43.08
      1.08              -35.28           12.4          18.65          61.34         -5.697          11.87         -42.19          54.95          35.84          42.85          43.12
     1.115              -35.22          12.45          18.64          61.35         -5.726          11.81         -42.18          54.91          35.54          42.88          43.16
      1.15              -35.15          12.51          18.62          61.37          -5.76          11.75         -42.16          54.87          35.18          42.91          43.21
     1.185              -35.07          12.57          18.61          61.39         -5.799          11.67         -42.15          54.81          34.77          42.94          43.27
      1.22              -34.97          12.65          18.59          61.41         -5.846          11.58         -42.13          54.75          34.29          42.98          43.34
     1.255              -34.86          12.75          18.57          61.44         -5.901          11.47         -42.11          54.67          33.71          43.03          43.43
     1.289              -34.72          12.86          18.54          61.47         -5.967          11.34         -42.09          54.58          33.02          43.08          43.53
     1.324              -34.56           13.0          18.51          61.52         -6.047          11.19         -42.06          54.47          32.18          43.15          43.65
     1.359              -34.36          13.17          18.48          61.57         -6.144           11.0         -42.02          54.34          31.16          43.23          43.79
     1.394              -34.11          13.37          18.43          61.63         -6.265          10.76         -41.98          54.17           29.9          43.34          43.98
     1.429               -33.8          13.63          18.38          61.71         -6.415          10.47         -41.93          53.96          28.32          43.47           44.2
     1.464               -33.4          13.96           18.3           61.8         -6.604           10.1         -41.86           53.7          26.34          43.63          44.49
     1.499              -32.91          14.37          18.21          61.93         -6.845          9.637         -41.77          53.37          23.82          43.83          44.85
     1.533              -32.27           14.9           18.1          62.08         -7.152          9.038         -41.66          52.95          20.59          44.09          45.32
     1.568              -31.45          15.57          17.95          62.29         -7.547           8.27         -41.51           52.4          16.45          44.43          45.91
     1.603              -30.41          16.44          17.76          62.55         -8.052          7.289         -41.33          51.71          11.17          44.86          46.68
     1.638               -29.1          17.53          17.52          62.87         -8.687          6.055          -41.1          50.83           4.52           45.4          47.64
     1.673               -27.5          18.86          17.23          63.27          -9.46          4.551         -40.82          49.77         -3.581          46.06           48.8
     1.708              -25.64          20.39          16.89          63.73         -10.36          2.808         -40.49          48.53         -12.97          46.83          50.16
     1.743              -23.63          22.06          16.52          64.23         -11.33          0.921         -40.14          47.19         -23.14          47.66          51.62
     1.777              -21.63          23.72          16.15          64.73          -12.3        -0.9662         -39.79          45.85         -33.31          48.49          53.09
     1.812              -19.77          25.26          15.82          65.19         -13.19         -2.709         -39.46          44.62          -42.7          49.25          54.45
     1.847              -18.17          26.59          15.52          65.59         -13.97         -4.213         -39.18          43.55          -50.8          49.91          55.61
